<svg xmlns="http://www.w3.org/2000/svg" viewBox="0 0 16 16">
    <path style="fill: rgb(146, 236, 183);"
        d="M 4.101 2.048 C 1.633 3.544 0.422 6.534 1.469 8.068 C 3.022 10.344 4.083 11.171 4.024 12.66 C 3.894 15.951 9.323 15.381 11.955 13.905 C 14.587 12.429 16.029 8.671 14.719 6.963 C 13.409 5.255 12.221 6.738 11.476 2.128 C 11.101 -0.19 7.646 -0.101 4.101 2.048 Z">
    </path>
    <path
        d="M 6.603 9.75 C 6.591 10.147 5.319 10.853 4.666 11.07 C 4.013 11.287 3.261 11.437 3.058 11.039 C 2.855 10.641 3.101 10.3 3.101 10.3 L 2.473 9.452 L 1.776 8.506 C 1.776 8.506 1.391 9.08 1.142 9.899 C 0.893 10.718 0.628 11.54 1.834 12.707 C 3.04 13.874 5.532 12.924 5.532 12.924 C 5.532 12.924 6.931 12.372 7.7 11.674 C 8.469 10.976 8.819 10.547 8.748 9.849 C 8.666 9.04 7.687 8.401 7.133 8.02 C 6.498 7.583 6.439 6.953 6.512 6.777 C 6.585 6.601 6.707 6.121 7.834 6.279 C 8.961 6.437 9.465 5.534 9.436 4.942 C 9.41 4.405 7.978 3.064 6.972 3.088 C 5.966 3.112 4.893 3.735 4.208 5.009 C 3.523 6.283 4.216 7.65 4.752 8.274 C 5.288 8.898 6.615 9.353 6.603 9.75 Z"
        style="fill: rgb(40, 69, 65); stroke-width: 1;"></path>
    <path
        d="M 11.934 4.162 C 11.934 4.162 11.738 3.5 11.665 3.174 C 11.601 2.892 11.509 2.356 11.509 2.356 C 11.509 2.356 12.251 1.939 13.594 2.619 C 14.336 2.995 14.864 4.068 14.836 4.776 C 14.805 5.55 14.599 6.019 14.136 6.646 C 13.545 7.447 11.442 9.265 10.688 9.265 C 9.934 9.265 10.445 8.276 10.798 7.877 C 11.718 6.837 12.987 5.176 12.725 4.633 C 12.463 4.09 12.114 4.054 11.934 4.162 Z"
        style="fill: rgb(40, 69, 65); stroke-width: 1;"></path>
    <ellipse style="stroke-width: 1; fill: rgb(255, 255, 255);" cx="7.023" cy="5.07" rx="0.597" ry="0.673"></ellipse>
</svg>